<?xml version="1.0" standalone="no"?>
<!DOCTYPE svg PUBLIC "-//W3C//DTD SVG 20010904//EN"
 "http://www.w3.org/TR/2001/REC-SVG-20010904/DTD/svg10.dtd">
<svg version="1.0" xmlns="http://www.w3.org/2000/svg"
 width="1280.000000pt" height="587.000000pt" viewBox="0 0 1280.000000 587.000000"
 preserveAspectRatio="xMidYMid meet">

<g transform="translate(0.000000,587.000000) scale(0.100000,-0.100000)"
fill="#000000" stroke="none">
<path d="M1790 5859 c-47 -5 -140 -20 -207 -34 -593 -123 -1107 -525 -1378
-1078 -535 -1093 24 -2407 1183 -2781 220 -71 403 -98 647 -95 l170 3 8 -90
c24 -269 134 -588 285 -832 331 -532 888 -880 1506 -941 758 -75 1493 290
1898 941 152 244 261 565 286 841 l7 79 205 0 205 0 8 -89 c24 -269 134 -587
285 -831 289 -465 752 -793 1282 -906 900 -193 1810 251 2216 1079 102 209
172 455 192 669 l7 80 170 -3 c702 -9 1326 323 1712 910 381 581 426 1336 118
1966 -306 624 -910 1044 -1599 1112 -279 28 -581 -6 -839 -95 -502 -172 -918
-540 -1152 -1017 -99 -203 -172 -450 -190 -642 -11 -123 15 -110 -217 -108
l-203 1 -7 79 c-20 215 -91 461 -193 670 -306 625 -910 1044 -1599 1112 -279
28 -581 -6 -839 -95 -502 -172 -918 -540 -1152 -1017 -99 -203 -172 -450 -190
-642 -11 -123 15 -110 -217 -108 l-203 1 -7 79 c-20 215 -91 461 -193 670
-371 756 -1166 1197 -2005 1112z m541 -288 c577 -118 1034 -491 1266 -1032 70
-164 121 -372 126 -515 l2 -77 -95 -28 c-434 -126 -834 -422 -1094 -809 -166
-246 -297 -606 -322 -883 -5 -62 -10 -78 -25 -82 -10 -4 -93 -6 -183 -6 -199
-1 -366 25 -539 82 -603 197 -1043 693 -1168 1315 -30 153 -37 418 -15 572
110 748 673 1336 1406 1466 132 24 143 24 350 21 144 -3 220 -9 291 -24z
m4400 0 c577 -118 1034 -491 1266 -1032 70 -164 121 -372 126 -515 l2 -77 -95
-28 c-434 -126 -834 -422 -1094 -809 -166 -246 -297 -606 -322 -883 -5 -62
-10 -78 -25 -82 -25 -8 -353 -8 -378 0 -15 4 -20 20 -25 82 -31 336 -200 745
-423 1022 -62 78 -225 242 -303 306 -199 162 -467 302 -710 370 -90 25 -89 23
-65 186 109 745 674 1333 1405 1463 132 24 143 24 350 21 144 -3 220 -9 291
-24z m4400 0 c577 -118 1034 -491 1266 -1032 48 -111 73 -194 105 -339 19 -91
22 -135 23 -325 0 -191 -3 -235 -23 -333 -127 -629 -564 -1123 -1169 -1321
-173 -57 -340 -83 -539 -82 -90 0 -173 2 -183 6 -15 4 -20 20 -25 82 -31 336
-200 745 -423 1022 -62 78 -225 242 -303 306 -199 162 -467 302 -710 370 -90
25 -89 23 -65 186 109 745 674 1333 1405 1463 132 24 143 24 350 21 144 -3
220 -9 291 -24z m-6745 -1846 c19 -4 22 -14 28 -82 31 -338 202 -751 424
-1023 262 -320 578 -536 957 -655 66 -21 124 -42 129 -46 14 -12 -9 -193 -40
-320 -77 -321 -235 -599 -470 -831 -103 -101 -138 -129 -254 -208 -195 -131
-407 -218 -655 -267 -113 -22 -472 -25 -580 -5 -198 37 -348 87 -510 169 -160
81 -288 174 -424 306 -277 270 -448 605 -506 992 -20 131 -20 175 0 175 9 0
66 16 128 36 330 107 601 279 849 541 282 296 489 745 524 1136 6 68 9 78 28
82 48 11 318 11 372 0z m4400 0 c19 -4 22 -14 28 -82 31 -338 202 -751 424
-1023 262 -320 578 -536 957 -655 66 -21 124 -42 129 -46 14 -12 -9 -193 -40
-320 -77 -321 -235 -599 -470 -831 -103 -101 -138 -129 -254 -208 -195 -131
-407 -218 -655 -267 -113 -22 -472 -25 -580 -5 -198 37 -348 87 -510 169 -160
81 -288 174 -424 306 -277 270 -448 605 -506 992 -20 131 -20 175 0 175 9 0
66 16 128 36 330 107 601 279 849 541 282 296 489 745 524 1136 6 68 9 78 28
82 48 11 318 11 372 0z m-5086 -186 c-115 -603 -549 -1103 -1132 -1308 -68
-24 -88 -27 -88 -16 0 8 9 62 21 121 104 538 465 1001 965 1236 106 49 248 98
252 87 2 -5 -6 -59 -18 -120z m1234 32 c429 -201 765 -578 911 -1027 30 -89
75 -289 75 -329 0 -11 -20 -8 -87 16 -583 204 -1017 704 -1132 1303 -12 59
-21 113 -21 121 0 18 129 -25 254 -84z m3166 -32 c-115 -603 -549 -1103 -1132
-1308 -68 -24 -88 -27 -88 -16 0 8 9 62 21 121 104 538 465 1001 965 1236 106
49 248 98 252 87 2 -5 -6 -59 -18 -120z m1234 32 c429 -201 765 -578 911
-1027 30 -89 75 -289 75 -329 0 -11 -20 -8 -87 16 -583 204 -1017 704 -1132
1303 -12 59 -21 113 -21 121 0 18 129 -25 254 -84z"/>
</g>
</svg>
