<svg width="96" height="96" xmlns="http://www.w3.org/2000/svg" xmlns:xlink="http://www.w3.org/1999/xlink" xml:space="preserve" overflow="hidden"><defs><clipPath id="clip0"><rect x="0" y="0" width="96" height="96"/></clipPath></defs><g clip-path="url(#clip0)"><path d="M76 60.053 61.148 60.053 61.183 59.325C62.044 41.304 62.934 22.67 53.583 6.039 52.5 4.11346 50.061 3.43047 48.1355 4.5135 46.21 5.59653 45.527 8.03546 46.61 9.961 50.91 17.599 52.731 25.803 53.384 34.411L50.623 34.442C47.4888 34.4781 44.6893 36.4103 43.544 39.328 43.381 39.6055 43.2521 39.9016 43.16 40.21 39.3 53.7 33.418 64.518 25.528 78.325 25.441 78.4886 25.3655 78.658 25.302 78.832 22.6973 80.45 19.922 82.1257 16.976 83.859 15.0706 84.9771 14.4324 87.4281 15.5505 89.3335 16.6686 91.2389 19.1196 91.8771 21.025 90.759 32.8533 83.9236 44.2328 76.3395 55.094 68.053L72 68.053 72 87.309C72 89.5181 73.7909 91.309 76 91.309 78.2091 91.309 80 89.5181 80 87.309L80 64.053C80 61.8439 78.2091 60.053 76 60.053ZM44.91 58.627 45.665 65.134C43.914 66.421 41.889 67.872 39.601 69.458 41.535 65.807 43.3 62.241 44.911 58.627Z"/><path d="M49.911 25.923C49.911 30.3413 46.3293 33.923 41.911 33.923 37.4927 33.923 33.911 30.3413 33.911 25.923 33.911 21.5047 37.4927 17.923 41.911 17.923 46.3293 17.923 49.911 21.5047 49.911 25.923Z"/></g></svg>